HIERARCHY
ROOT Hips
{
    OFFSET 11.897454471783497 82.29194181601312 -16.413971331104964
    CHANNELS 6 Xposition Yposition Zposition Zrotation Xrotation Yrotation
    JOINT RightUpLeg
    {
        OFFSET -11.897454471783497 0.0 0.0
        CHANNELS 3 Zrotation Xrotation Yrotation
        JOINT RightLeg
        {
            OFFSET 0.0 -41.257013488250706 0.0
            CHANNELS 3 Zrotation Xrotation Yrotation
            JOINT RightFoot
            {
                OFFSET 0.0 -41.034928327762415 0.0
                CHANNELS 3 Zrotation Xrotation Yrotation
                End Site RightFoot_End
                {
                    OFFSET 0.0 0.0 16.413971331104964
                }
            }
        }
    }
    JOINT LeftUpLeg
    {
        OFFSET 11.897454471783497 0.0 0.0
        CHANNELS 3 Zrotation Xrotation Yrotation
        JOINT LeftLeg
        {
            OFFSET 0.0 -41.257013488250706 0.0
            CHANNELS 3 Zrotation Xrotation Yrotation
            JOINT LeftFoot
            {
                OFFSET 0.0 -41.034928327762415 0.0
                CHANNELS 3 Zrotation Xrotation Yrotation
                End Site LeftFoot_End
                {
                    OFFSET 0.0 0.0 16.413971331104964
                }
            }
        }
    }
    JOINT Spine
    {
        OFFSET 0.0 21.5233499582832 0.0
        CHANNELS 3 Zrotation Xrotation Yrotation
        JOINT Spine3
        {
            OFFSET 0.0 24.522905280373465 0.0
            CHANNELS 3 Zrotation Xrotation Yrotation
            JOINT Neck
            {
                OFFSET 0.0 13.73111050398515 0.0
                CHANNELS 3 Zrotation Xrotation Yrotation
                End Site Head
                {
                    OFFSET 0.0 5.492444201594061 0.0
                }
            }
            JOINT LeftArm
            {
                OFFSET 14.392108185989382 0.0 0.0
                CHANNELS 3 Zrotation Xrotation Yrotation
                JOINT LeftForeArm
                {
                    OFFSET 27.30276923667062 0.0 0.0
                    CHANNELS 3 Zrotation Xrotation Yrotation
                    JOINT LeftHand
                    {
                        OFFSET 23.123887139023314 0.0 0.0
                        CHANNELS 3 Zrotation Xrotation Yrotation
                        End Site LeftWristEndSite
                        {
                            OFFSET 9.249554855609325 0.0 0.0
                        }
                    }
                }
            }
            JOINT RightArm
            {
                OFFSET -14.392108185989382 0.0 0.0
                CHANNELS 3 Zrotation Xrotation Yrotation
                JOINT RightForeArm
                {
                    OFFSET -27.30276923667062 0.0 0.0
                    CHANNELS 3 Zrotation Xrotation Yrotation
                    JOINT RightHand
                    {
                        OFFSET -23.123887139023314 0.0 0.0
                        CHANNELS 3 Zrotation Xrotation Yrotation
                        End Site RightWristEndSite
                        {
                            OFFSET -9.249554855609325 0.0 0.0
                        }
                    }
                }
            }
        }
    }
}
MOTION
Frames: 5
Frame Time: 0.03333333333333333
25.542084523795694 63.79403521970176 45.146677357270896 -17.91853635167802 -10.828686803750928 35.354068080040875 3.187303870731801 6.3306398591461175 -7.189978488646093 12.070742341138304 21.558069493747723 -6.4083637877669535 6.896728590703373e-33 3.9756933518293955e-16 -1.9878466759146976e-15 8.891936933712543 21.856752863864866 1.7535257053254794 8.653149340913462 10.99558986856472 -3.9495764954249513 -1.5902773407317584e-15 -3.578124016646457e-15 7.951386703658791e-16 -3.450070811988004 -4.2792850367809665 -0.13180688816067787 6.19843299215285e-15 -3.4869856395873684e-15 -5.590559774412498 0.0 0.0 7.951386703658792e-16 -133.4161582079576 -47.373379348877144 -34.3159454536478 -91.94187299849023 2.256290806999531e-14 -4.1162409644570284e-15 0.0 0.0 0.0 134.44899613624113 -49.208925418531926 71.30511415417978 83.31998914260767 -1.50610577456094e-14 -1.2143058865428441e-14 4.969616689786745e-17 0.0 0.0
25.541935194936784 63.793662255213455 45.146765352046906 -17.920450144458663 -10.83770133985328 35.37743963844866 3.1923829970263227 6.330309554738577 -7.17201016996664 12.067350345571136 21.516730519179 -6.395956923494956 1.5902773407317584e-15 -5.517382872562698e-33 -3.975693351829396e-16 8.94204495841131 21.90029874950049 1.7154687949607068 8.623677351797163 10.960071224260362 -3.9387605420062384 -1.5902773407317584e-15 -1.1034765745125397e-32 7.951386703658792e-16 -3.4330159250229872 -4.254612492507616 -0.1301989244609236 3.2965557760655085e-15 2.2223540768899975e-15 -5.7684905457974365 0.0 0.0 -3.975693351829396e-16 -136.48402321951892 -45.77593236159567 -36.85450755316588 -91.5179746387162 1.3790678121335385e-14 -2.2309197800788963e-14 0.0 0.0 0.0 134.2318936350518 -48.905090770223076 71.0390289665217 83.14404933549505 7.138330420425475e-15 -6.3314762532006485e-15 9.939233379573489e-17 -2.758691436281349e-33 -3.1805546814635164e-15
25.541943851682227 63.79368387634321 45.14676025090047 -17.92044900215496 -10.837639652759316 35.377459488089194 3.192282575347726 6.330161319259091 -7.171980821249801 12.067396633551267 21.51677986016253 -6.395911243346016 0.0 0.0 1.1927080055488188e-15 8.94202116000376 21.9002565027689 1.7154773290015606 8.62367904868004 10.960064114058936 -3.93876233243126 0.0 0.0 7.951386703658792e-16 -3.4330847953317116 -4.254600430783059 -0.13020604881632247 9.28951721879911e-15 -5.2449080794284796e-15 -5.7684795565154445 0.0 0.0 1.5902773407317584e-15 -136.483893465667 -45.77595268910323 -36.85442700194411 -91.51785794369705 4.557166673828054e-15 -4.4380112926928125e-15 0.0 0.0 0.0 134.2319743031221 -48.905055353828715 71.03915979462276 83.14402983718526 4.758887665171184e-15 -4.220983359052665e-15 7.951386703658792e-16 0.0 0.0
25.539541604821466 63.78768401283563 45.14817581903622 -17.90708341573975 -10.9093467428705 34.32176445448156 3.0527968003143333 6.371450930726177 -7.36987995885192 11.604399000426119 21.823870551249726 -6.276775406884954 -1.5902773407317584e-15 -1.6552148617688095e-32 1.1927080055488188e-15 8.067222695904446 21.52675977691825 2.249324809157129 9.206132157140523 11.94772903586323 -4.2609506080296 0.0 0.0 -7.951386703658791e-16 -3.4361519615186076 -4.393475224131863 -0.12755560995401358 3.1440614959237074e-15 -9.290053265405366e-16 -4.8501595209798305 0.0 0.0 -3.975693351829396e-16 -133.8423508206346 -47.412846422015114 -34.90092189486619 -92.77221179897573 -4.387862282468893e-15 -4.605472496628858e-15 0.0 0.0 0.0 134.37669035427533 -49.50362905674825 71.04937127805972 83.71309229834125 -6.613497702912624e-15 -2.6155856977868097e-15 6.957463365701443e-16 0.0 0.0
25.876321465395392 64.62882703962046 44.949722093410216 -17.853166477098704 -10.910184300855716 36.0472982699772 2.771289736488794 5.855345149430925 -5.979941151617643 12.730509954186974 20.958978855375218 -6.411726038704119 -1.5902773407317584e-15 -1.6552148617688095e-32 1.1927080055488188e-15 8.018919811833321 20.44423286918267 1.4490132073929995 9.301375083136241 11.773786606162906 -4.119595924683903 0.0 0.0 0.0 -3.082365372735268 -3.637462549813733 -0.08565150912764849 6.455739511064251e-15 2.115974772629119e-15 -4.817275239209499 1.3793457181406746e-32 -7.951386703658791e-16 1.9878466759146976e-15 -134.44589400180578 -45.095299632955275 -35.34911473444187 -91.30378676151294 0.0 0.0 0.0 0.0 0.0 139.5286923984295 -44.94887674436755 74.23145305199691 79.14811373237852 1.6310390138603102e-14 -5.228105574504399e-15 3.9756933518293955e-16 0.0 0.0
